<svg id="Calque_1" data-name="Calque 1" xmlns="http://www.w3.org/2000/svg" viewBox="0 0 77.87 77.87"><defs><style>.cls-1{fill:#eb651c;}.cls-2{fill:none;stroke:#eb651c;stroke-miterlimit:10;stroke-width:4px;}</style></defs><path class="cls-1" d="M34.62,18.26s-13.28,4.41-5.43,17c0,0,6.68,7.71,10-4.64C39.21,30.64,41.22,18.79,34.62,18.26Z" transform="translate(-1.48 -1.79)"/><path class="cls-1" d="M21.36,30.05S16.78,30,17,40.64c0,0,.18,8.18,8.74,7.29,0,0,4.33-.44,2.73-7.29C28.49,40.64,26.17,29.58,21.36,30.05Z" transform="translate(-1.48 -1.79)"/><path class="cls-1" d="M46.76,18.26s13.28,4.41,5.44,17c0,0-6.69,7.71-10-4.64C42.17,30.64,40.17,18.79,46.76,18.26Z" transform="translate(-1.48 -1.79)"/><path class="cls-1" d="M60.38,30.05S65,30,64.72,40.64c0,0-.18,8.18-8.73,7.29,0,0-4.34-.44-2.74-7.29C53.25,40.64,55.57,29.58,60.38,30.05Z" transform="translate(-1.48 -1.79)"/><path class="cls-1" d="M40.63,37.66a7.91,7.91,0,0,0-6.93,5.23,17.09,17.09,0,0,1-5.41,5.61s-7.55,9.49,4.3,14c0,0,.55.42,5-.25a9.46,9.46,0,0,1,3.08-.44" transform="translate(-1.48 -1.79)"/><path class="cls-1" d="M40.63,37.66a7.91,7.91,0,0,1,6.93,5.23A17.09,17.09,0,0,0,53,48.5s7.55,9.49-4.3,14c0,0-.56.42-5-.25a9.43,9.43,0,0,0-3.07-.44" transform="translate(-1.48 -1.79)"/><circle class="cls-2" cx="38.94" cy="38.94" r="36.94"/></svg>