<svg id="Calque_1" data-name="Calque 1" xmlns="http://www.w3.org/2000/svg" viewBox="0 0 337.22 77.87"><defs><style>.cls-1{fill:#eb651c;}.cls-2{fill:none;stroke:#eb651c;stroke-miterlimit:10;stroke-width:4px;}.cls-3{fill:#212121;}</style></defs><path class="cls-1" d="M162.07,21.85s-13.28,4.41-5.44,17c0,0,6.68,7.71,10-4.63C166.66,34.24,168.66,22.39,162.07,21.85Z" transform="translate(-7.45 -5.39)"/><path class="cls-1" d="M148.8,33.65s-4.57,0-4.33,10.59c0,0,.18,8.18,8.73,7.29,0,0,4.34-.44,2.73-7.29C155.93,44.24,153.62,33.17,148.8,33.65Z" transform="translate(-7.45 -5.39)"/><path class="cls-1" d="M174.21,21.85s13.27,4.41,5.43,17c0,0-6.68,7.71-10-4.63C169.62,34.24,167.61,22.39,174.21,21.85Z" transform="translate(-7.45 -5.39)"/><path class="cls-1" d="M187.83,33.65s4.57,0,4.34,10.59c0,0-.18,8.18-8.74,7.29,0,0-4.33-.44-2.73-7.29C180.7,44.24,183,33.17,187.83,33.65Z" transform="translate(-7.45 -5.39)"/><path class="cls-1" d="M168.07,41.25a7.89,7.89,0,0,0-6.92,5.23,17.06,17.06,0,0,1-5.42,5.61s-7.55,9.49,4.3,14c0,0,.56.43,5-.24a9.36,9.36,0,0,1,3.07-.45" transform="translate(-7.45 -5.39)"/><path class="cls-1" d="M168.07,41.25A7.91,7.91,0,0,1,175,46.48a17.06,17.06,0,0,0,5.42,5.61s7.55,9.49-4.3,14c0,0-.56.43-5-.24a9.38,9.38,0,0,0-3.08-.45" transform="translate(-7.45 -5.39)"/><circle class="cls-2" cx="160.42" cy="38.94" r="36.94"/><path class="cls-3" d="M9.34,38.13A1.89,1.89,0,0,1,8,37.62a1.69,1.69,0,0,1-.54-1.27A1.73,1.73,0,0,1,8,35a1.86,1.86,0,0,1,1.35-.52H23.11a1.86,1.86,0,0,1,1.35.52A1.73,1.73,0,0,1,25,36.35a1.69,1.69,0,0,1-.54,1.27,1.89,1.89,0,0,1-1.35.51ZM22.79,63a9.73,9.73,0,0,1-5.11-1.35,9.84,9.84,0,0,1-3.54-3.7,11,11,0,0,1-1.29-5.38V26.14a2.14,2.14,0,0,1,.56-1.51A2,2,0,0,1,14.9,24,2.05,2.05,0,0,1,17,26.14V52.55a6.38,6.38,0,0,0,1.62,4.51,5.4,5.4,0,0,0,4.16,1.76h1.45a1.83,1.83,0,0,1,1.41.59,2.17,2.17,0,0,1,.54,1.52,1.88,1.88,0,0,1-.65,1.48,2.36,2.36,0,0,1-1.62.57Z" transform="translate(-7.45 -5.39)"/><path class="cls-3" d="M46.39,63.25a15.22,15.22,0,0,1-7.72-2A14,14,0,0,1,33.32,56a15.28,15.28,0,0,1-1.95-7.73,15.39,15.39,0,0,1,1.95-7.78,14.07,14.07,0,0,1,5.35-5.34,15.22,15.22,0,0,1,7.72-2,15.14,15.14,0,0,1,7.7,2,14.2,14.2,0,0,1,5.32,5.34,15.83,15.83,0,0,1,2,7.78,15.09,15.09,0,0,1-2,7.73,14.26,14.26,0,0,1-5.34,5.34A15.14,15.14,0,0,1,46.39,63.25Zm0-3.78A10.93,10.93,0,0,0,52,58a10.39,10.39,0,0,0,3.89-4,11.8,11.8,0,0,0,1.4-5.78,11.93,11.93,0,0,0-1.4-5.8,10.4,10.4,0,0,0-3.89-4,11.55,11.55,0,0,0-11.24,0,10.45,10.45,0,0,0-3.91,4,11.63,11.63,0,0,0-1.44,5.8A11.5,11.5,0,0,0,36.86,54a10.44,10.44,0,0,0,3.91,4A10.93,10.93,0,0,0,46.39,59.47Z" transform="translate(-7.45 -5.39)"/><path class="cls-3" d="M82.36,63.3a14.52,14.52,0,0,1-6.86-1.59A11.67,11.67,0,0,1,70.72,57,15,15,0,0,1,69,49.53v-14A2,2,0,0,1,69.56,34a2,2,0,0,1,1.46-.6,2,2,0,0,1,1.51.6,2,2,0,0,1,.59,1.46v14A10.83,10.83,0,0,0,74.39,55a8.12,8.12,0,0,0,3.46,3.24,11,11,0,0,0,4.94,1.08,10.78,10.78,0,0,0,4.78-1A8.44,8.44,0,0,0,91,55.52a6.86,6.86,0,0,0,1.24-4.05h3a12.25,12.25,0,0,1-1.86,6.08,12.11,12.11,0,0,1-4.57,4.21A13.16,13.16,0,0,1,82.36,63.3ZM94.24,63a2,2,0,0,1-1.48-.57,2.08,2.08,0,0,1-.57-1.54V35.49a2,2,0,0,1,2-2.06,2.11,2.11,0,0,1,1.52.57,2,2,0,0,1,.59,1.49V60.87a2,2,0,0,1-.59,1.54A2.11,2.11,0,0,1,94.24,63Z" transform="translate(-7.45 -5.39)"/><path class="cls-3" d="M104.18,38.13a1.89,1.89,0,0,1-1.35-.51,1.69,1.69,0,0,1-.54-1.27,1.73,1.73,0,0,1,.54-1.32,1.86,1.86,0,0,1,1.35-.52H118a1.86,1.86,0,0,1,1.35.52,1.73,1.73,0,0,1,.54,1.32,1.69,1.69,0,0,1-.54,1.27,1.89,1.89,0,0,1-1.35.51ZM117.63,63a9.59,9.59,0,0,1-8.64-5,10.9,10.9,0,0,1-1.3-5.38V26.14a2.1,2.1,0,0,1,.57-1.51,1.94,1.94,0,0,1,1.48-.6,2,2,0,0,1,1.52.6,2.07,2.07,0,0,1,.59,1.51V52.55a6.38,6.38,0,0,0,1.62,4.51,5.42,5.42,0,0,0,4.16,1.76h1.46a1.83,1.83,0,0,1,1.4.59,2.17,2.17,0,0,1,.54,1.52,1.87,1.87,0,0,1-.64,1.48,2.4,2.4,0,0,1-1.63.57Z" transform="translate(-7.45 -5.39)"/><path class="cls-3" d="M219.25,75.62a2,2,0,0,1-2.11-2.11V48a15.15,15.15,0,0,1,2-7.59,14.3,14.3,0,0,1,5.35-5.32,14.88,14.88,0,0,1,7.58-2,15.19,15.19,0,0,1,7.73,2,14.51,14.51,0,0,1,5.37,5.38,15.06,15.06,0,0,1,2,7.72,15.42,15.42,0,0,1-1.91,7.67A14.42,14.42,0,0,1,240,61.28a14.25,14.25,0,0,1-7.45,2A14,14,0,0,1,226,61.71a13.07,13.07,0,0,1-4.73-4.08V73.51a2.08,2.08,0,0,1-.57,1.54A2,2,0,0,1,219.25,75.62ZM232.1,59.47A10.93,10.93,0,0,0,237.72,58a10.47,10.47,0,0,0,3.92-4,12.34,12.34,0,0,0,0-11.53,10.73,10.73,0,0,0-9.54-5.51,10.64,10.64,0,0,0-9.45,5.51,12.57,12.57,0,0,0,0,11.53,10.26,10.26,0,0,0,3.89,4A10.81,10.81,0,0,0,232.1,59.47Z" transform="translate(-7.45 -5.39)"/><path class="cls-3" d="M268.78,63.25a15.28,15.28,0,0,1-7.73-2A14.12,14.12,0,0,1,255.71,56a15.28,15.28,0,0,1-2-7.73,15.39,15.39,0,0,1,2-7.78,14.12,14.12,0,0,1,5.34-5.34,16.24,16.24,0,0,1,15.43,0,14.2,14.2,0,0,1,5.32,5.34,15.83,15.83,0,0,1,2,7.78,15.09,15.09,0,0,1-2,7.73,14.33,14.33,0,0,1-5.34,5.34A15.14,15.14,0,0,1,268.78,63.25Zm0-3.78A10.93,10.93,0,0,0,274.4,58a10.39,10.39,0,0,0,3.89-4,11.8,11.8,0,0,0,1.4-5.78,11.93,11.93,0,0,0-1.4-5.8,10.4,10.4,0,0,0-3.89-4,11.55,11.55,0,0,0-11.24,0,10.45,10.45,0,0,0-3.91,4,11.63,11.63,0,0,0-1.44,5.8A11.5,11.5,0,0,0,259.25,54a10.44,10.44,0,0,0,3.91,4A10.93,10.93,0,0,0,268.78,59.47Z" transform="translate(-7.45 -5.39)"/><path class="cls-3" d="M294.81,27.81a2.77,2.77,0,0,1-2.05-.86,2.84,2.84,0,0,1-.86-2.11,2.67,2.67,0,0,1,.89-2.13,3,3,0,0,1,2.08-.78,3,3,0,0,1,2,.78,2.67,2.67,0,0,1,.89,2.13,2.94,2.94,0,0,1-3,3ZM294.87,63a2,2,0,0,1-2.11-2.11V35.54a2,2,0,0,1,2.11-2.11,2,2,0,0,1,1.48.57,2.08,2.08,0,0,1,.57,1.54V60.87a2.08,2.08,0,0,1-.57,1.54A2,2,0,0,1,294.87,63Z" transform="translate(-7.45 -5.39)"/><path class="cls-3" d="M313.88,63A6.58,6.58,0,0,1,310,61.79a7.77,7.77,0,0,1-2.65-3.29,11.82,11.82,0,0,1-.95-4.87V22.85a2.06,2.06,0,1,1,4.11,0V53.63a6.83,6.83,0,0,0,.94,3.78,2.79,2.79,0,0,0,2.41,1.46h1.35a1.6,1.6,0,0,1,1.29.57,2.17,2.17,0,0,1,.49,1.48,1.82,1.82,0,0,1-.68,1.49,2.61,2.61,0,0,1-1.75.57Z" transform="translate(-7.45 -5.39)"/><path class="cls-3" d="M333.05,63.25a19.3,19.3,0,0,1-6.32-1.08,11.81,11.81,0,0,1-5.07-3.24,1.73,1.73,0,0,1-.49-1.46,2.13,2.13,0,0,1,2.38-1.84,2.22,2.22,0,0,1,1.35.7,8.2,8.2,0,0,0,3.43,2.33,13.17,13.17,0,0,0,4.72.81c2.67,0,4.59-.46,5.78-1.38a4.27,4.27,0,0,0,1.84-3.32,3.81,3.81,0,0,0-1.84-3.22,15.72,15.72,0,0,0-6.05-2q-5.46-.86-8-3a6.52,6.52,0,0,1-2.54-5.13,7.15,7.15,0,0,1,1.46-4.59,8.76,8.76,0,0,1,3.89-2.76,15,15,0,0,1,5.34-.92,14.53,14.53,0,0,1,6.24,1.24,11.44,11.44,0,0,1,4.24,3.35,1.87,1.87,0,0,1,.43,1.46,1.73,1.73,0,0,1-.86,1.24,2.14,2.14,0,0,1-1.49.25,2.42,2.42,0,0,1-1.43-.79,8.16,8.16,0,0,0-3.13-2.29,10.71,10.71,0,0,0-4.1-.73,8.33,8.33,0,0,0-4.76,1.21,3.59,3.59,0,0,0-1.78,3.06,3.5,3.5,0,0,0,.68,2.16,5.43,5.43,0,0,0,2.32,1.62,21.08,21.08,0,0,0,4.62,1.19,20.66,20.66,0,0,1,6.4,1.91,8.45,8.45,0,0,1,3.35,3,7.26,7.26,0,0,1,1,3.7,7.07,7.07,0,0,1-1.49,4.46,9.74,9.74,0,0,1-4.11,3A15.66,15.66,0,0,1,333.05,63.25Z" transform="translate(-7.45 -5.39)"/></svg>